# xmcd
#
# Track frame offsets:
# 150
# 11798
# 25976
# 39653
# 53934
# 67817
# 81943
# 95910
# 109685
# 123925
# 138928
# 151900
# 162947
# 177458
#
# Disc length: 2557 seconds
#
#
# Revision: 0
# Processed by: cddbd v1.5.2PL0 Copyright (c) Steve Scherf et al.
# Submitted via: FreeRIP 2.951 
#
DISCID=b809fb0e
DTITLE=Ella Fitzgerald - It's Only A Paper Moon ( Platinum Collection CD1)
DYEAR=2005
DGENRE=Rhythmic Soul
TTITLE0=I'll Ckase The Blues Away (Sampson)
TTITLE1=My Heart Belongs To Daddy (Poerter)
TTITLE2=My Melancholy Baby (Norton/Burnett)
TTITLE3=Crying My Heart Out For You (Hopkins/Johnson)
TTITLE4=If You Ever Change Your Mind (Watts/Green/Sigler)
TTITLE5=Dont't Worry About Me (Bloom/Koehler)
TTITLE6=Rhythm And Romannce (Whitting/Johnson/Burton)
TTITLE7=I Love Each Move You Make (Webb/Grumble)
TTITLE8=This Time It's Real (Shivers/Emmerich/Bernier)
TTITLE9=Love And Kisses (Curtis)
TTITLE10=Little White Lies (Donaldson)
TTITLE11=Devoting My Time To You ( Webber/Williams)
TTITLE12=I Let A Tear Fall In  The River (David/Livingston/Webb)
TTITLE13=Into Each Life Some Rain Must Fall (Roberts/Fisher)
EXTD=
EXTT0=
EXTT1=
EXTT2=
EXTT3=
EXTT4=
EXTT5=
EXTT6=
EXTT7=
EXTT8=
EXTT9=
EXTT10=
EXTT11=
EXTT12=
EXTT13=
PLAYORDER=
